<?xml version="1.0" standalone="no"?>
<!DOCTYPE svg PUBLIC "-//W3C//DTD SVG 20010904//EN"
 "http://www.w3.org/TR/2001/REC-SVG-20010904/DTD/svg10.dtd">
<svg version="1.0" xmlns="http://www.w3.org/2000/svg"
 width="1680.000000pt" height="880.000000pt" viewBox="0 0 1680.000000 880.000000"
 preserveAspectRatio="xMidYMid meet">

<g transform="translate(0.000000,880.000000) scale(0.100000,-0.100000)"
fill="#000000" stroke="none">
<path d="M0 4400 l0 -4400 4200 0 4200 0 0 4395 0 4395 4203 3 c2311 1 421 3
-4200 5 l-8403 2 0 -4400z m6901 1841 l29 -29 0 -1826 0 -1826 -29 -32 -29
-33 -2672 0 -2672 0 -29 33 -29 32 0 1826 0 1826 29 29 29 29 2672 0 2672 0
29 -29z"/>
<path d="M1770 5780 l0 -190 2430 0 2430 0 0 190 0 190 -2430 0 -2430 0 0
-190z m1840 5 l0 -95 40 0 c33 0 40 -3 40 -20 0 -18 -7 -20 -70 -20 l-70 0 0
115 0 115 30 0 30 0 0 -95z m369 69 c53 -44 54 -123 1 -175 -23 -23 -37 -29
-73 -29 -107 0 -154 124 -77 202 39 38 105 40 149 2z m339 -7 c3 -26 2 -27
-25 -20 -45 12 -76 6 -95 -17 -41 -50 -5 -117 60 -111 21 2 14 41 -8 41 -13 0
-20 7 -20 20 0 17 7 20 50 20 l50 0 0 -55 c0 -64 -12 -75 -89 -75 -89 0 -139
70 -111 155 17 52 60 76 130 73 52 -3 55 -5 58 -31z m192 -82 l0 -115 -30 0
-30 0 0 115 0 115 30 0 30 0 0 -115z m240 42 l45 -72 3 73 c3 69 4 72 27 72
l25 0 0 -115 0 -115 -29 0 c-24 0 -35 10 -72 67 l-44 67 -3 -67 c-3 -67 -3
-67 -32 -67 l-30 0 0 115 0 115 33 0 c29 -1 36 -8 77 -73z"/>
<path d="M3866 5808 c-31 -44 -7 -108 39 -108 26 0 55 33 55 62 0 9 -5 29 -12
43 -15 33 -60 35 -82 3z"/>
<path d="M1902 5279 c3 -49 27 -71 56 -53 19 12 31 94 13 94 -5 0 -11 -19 -13
-42 -2 -30 -8 -43 -18 -43 -10 0 -16 13 -18 43 -2 23 -8 42 -13 42 -6 0 -9
-18 -7 -41z"/>
<path d="M1801 5302 c-1 -7 -5 -11 -9 -8 -4 2 -8 -4 -8 -14 0 -10 3 -17 7 -14
4 2 10 -2 12 -8 4 -10 6 -10 6 -1 1 7 7 10 14 7 8 -3 13 3 13 16 0 12 -5 19
-12 16 -7 -3 -15 0 -18 7 -3 9 -5 8 -5 -1z"/>
<path d="M2004 5278 c-4 -6 0 -16 9 -23 22 -16 21 -22 0 -29 -14 -4 -14 -4 2
-3 24 3 34 37 11 37 -22 0 -20 17 2 23 15 4 15 5 0 6 -9 0 -20 -4 -24 -11z"/>
<path d="M2064 5276 c-11 -28 1 -51 26 -53 l25 -3 -25 12 -25 12 28 4 c20 2
27 8 25 20 -4 22 -46 28 -54 8z m41 -6 c3 -5 -3 -10 -15 -10 -12 0 -18 5 -15
10 3 6 10 10 15 10 5 0 12 -4 15 -10z"/>
<path d="M2130 5254 c0 -19 5 -34 10 -34 6 0 10 10 10 23 0 13 4 27 10 33 6 6
3 10 -10 11 -16 1 -20 -4 -20 -33z"/>
<path d="M2191 5251 c1 -35 2 -35 8 -7 9 41 31 46 31 7 0 -17 5 -31 11 -31 6
0 9 14 7 33 -3 27 -7 32 -30 33 -26 1 -28 -2 -27 -35z"/>
<path d="M2275 5281 c-3 -6 0 -8 8 -5 8 3 18 1 21 -4 3 -5 -3 -12 -14 -15 -30
-8 -26 -37 5 -35 22 2 26 7 23 33 -3 30 -30 46 -43 26z m30 -41 c-3 -5 -10
-10 -16 -10 -5 0 -9 5 -9 10 0 6 7 10 16 10 8 0 12 -4 9 -10z"/>
<path d="M2340 5255 c0 -19 5 -35 10 -35 6 0 10 16 10 35 0 19 -4 35 -10 35
-5 0 -10 -16 -10 -35z"/>
<path d="M2380 5276 c5 -5 11 -21 11 -35 1 -25 2 -25 8 3 9 42 29 44 34 4 l4
-33 1 37 c2 35 1 36 -33 35 -23 -1 -32 -4 -25 -11z"/>
<path d="M2470 5275 c-10 -12 -11 -21 -3 -33 11 -19 53 -29 53 -14 0 6 -9 8
-20 5 -11 -3 -20 0 -20 6 0 6 9 11 21 11 14 0 19 5 17 17 -4 24 -32 28 -48 8z
m35 -5 c3 -5 -1 -10 -9 -10 -9 0 -16 5 -16 10 0 6 4 10 9 10 6 0 13 -4 16 -10z"/>
<path d="M1926 4764 c-3 -9 -2 -23 3 -31 6 -11 2 -22 -10 -34 -11 -11 -19 -25
-19 -31 0 -7 10 -1 21 15 11 15 29 27 39 27 10 0 28 -12 39 -27 11 -16 21 -22
21 -15 0 6 -9 21 -19 31 -13 13 -16 22 -9 29 5 5 7 19 3 31 -8 26 -60 30 -69
5z m57 -6 c7 -21 -4 -38 -23 -38 -10 0 -20 6 -23 13 -7 20 4 37 23 37 10 0 20
-6 23 -12z"/>
<path d="M1900 4150 c0 -27 5 -50 10 -50 6 0 10 9 10 20 0 11 6 20 14 20 7 0
19 7 26 15 17 20 -3 45 -36 45 -22 0 -24 -4 -24 -50z m48 17 c2 -10 -3 -17
-12 -17 -10 0 -16 9 -16 21 0 24 23 21 28 -4z"/>
<path d="M2460 4182 c0 -13 -7 -18 -22 -18 -19 1 -23 -4 -23 -29 0 -26 4 -30
28 -31 26 -1 27 1 27 47 0 27 -2 49 -5 49 -3 0 -5 -8 -5 -18z m-3 -38 c8 -21
-13 -42 -28 -27 -13 13 -5 43 11 43 6 0 13 -7 17 -16z"/>
<path d="M1801 4182 c-1 -7 -5 -11 -9 -8 -4 2 -8 -4 -8 -14 0 -10 3 -17 7 -14
4 2 10 -2 12 -8 4 -10 6 -10 6 -1 1 7 7 10 14 7 8 -3 13 3 13 16 0 12 -5 19
-12 16 -7 -3 -15 0 -18 7 -3 9 -5 8 -5 -1z"/>
<path d="M1985 4161 c-3 -6 0 -8 8 -5 8 3 18 1 21 -4 3 -5 -3 -12 -14 -15 -30
-8 -26 -37 5 -35 22 2 26 7 23 33 -3 30 -30 46 -43 26z m30 -41 c-3 -5 -10
-10 -16 -10 -5 0 -9 5 -9 10 0 6 7 10 16 10 8 0 12 -4 9 -10z"/>
<path d="M2054 4158 c-4 -6 0 -16 9 -23 22 -16 21 -22 0 -28 -14 -4 -12 -5 5
-6 16 -1 22 5 22 19 0 11 -7 20 -15 20 -21 0 -19 18 3 23 15 4 15 5 0 6 -9 0
-20 -4 -24 -11z"/>
<path d="M2114 4158 c-4 -6 0 -16 9 -23 22 -16 21 -22 0 -28 -14 -4 -12 -5 5
-6 16 -1 22 5 22 19 0 11 -7 20 -15 20 -21 0 -19 18 3 23 15 4 15 5 0 6 -9 0
-20 -4 -24 -11z"/>
<path d="M2171 4163 c-1 -6 3 -24 9 -38 11 -30 29 -25 31 8 1 20 2 19 12 -5
14 -37 21 -35 34 7 6 20 7 35 2 35 -5 0 -9 -9 -9 -20 0 -11 -4 -20 -10 -20 -5
0 -10 9 -10 20 0 29 -18 25 -26 -6 l-7 -27 -13 29 c-7 16 -13 24 -13 17z"/>
<path d="M2284 4156 c-10 -25 0 -51 20 -54 27 -6 48 25 35 49 -12 22 -47 25
-55 5z m43 -12 c8 -21 -13 -42 -28 -27 -13 13 -5 43 11 43 6 0 13 -7 17 -16z"/>
<path d="M2360 4135 c0 -19 5 -35 10 -35 6 0 10 13 10 29 0 16 6 32 13 34 6 3
2 6 -10 6 -20 1 -23 -4 -23 -34z"/>
<path d="M1925 3650 c-3 -5 -9 -32 -12 -60 l-6 -50 54 2 54 2 -47 3 c-43 4
-48 7 -48 29 0 22 4 24 44 24 43 0 44 1 37 28 -5 18 -14 27 -29 28 -20 1 -20
1 -2 -3 12 -2 20 -13 20 -24 0 -15 -7 -19 -31 -19 -28 0 -31 3 -27 25 5 26 3
31 -7 15z"/>
<path d="M6389 3629 c-18 -18 -19 -23 -6 -42 7 -11 20 -23 27 -25 7 -3 3 5
-10 18 -21 21 -21 23 -4 41 9 10 29 19 44 19 15 0 35 -9 44 -19 17 -18 17 -20
-4 -41 -13 -13 -17 -21 -10 -18 7 2 20 14 27 25 13 19 12 24 -6 42 -12 12 -34
21 -51 21 -17 0 -39 -9 -51 -21z"/>
<path d="M6419 3613 c-13 -16 -12 -17 4 -4 13 11 21 11 29 3 8 -8 5 -14 -13
-21 -23 -9 -23 -10 -3 -10 25 -1 38 21 21 38 -15 15 -22 14 -38 -6z"/>
<path d="M1777 3183 c-4 -3 -7 -91 -7 -195 l0 -188 871 0 c774 0 869 2 855 15
-8 8 -23 15 -33 16 -10 0 -13 3 -6 6 17 6 -9 33 -34 34 -10 0 -13 3 -6 6 17 6
-9 33 -34 34 -10 0 -13 3 -6 6 17 6 -9 33 -34 34 -10 0 -13 3 -6 6 17 6 -9 33
-34 34 -10 0 -13 3 -6 6 17 6 -9 33 -34 34 -10 0 -13 3 -6 6 17 6 -9 33 -34
34 -10 0 -13 3 -6 6 17 6 -9 33 -34 34 -10 0 -13 3 -6 6 17 6 -9 33 -34 34
-10 0 -13 3 -6 6 10 3 10 8 -1 19 -12 12 -119 14 -684 14 -368 0 -672 -3 -675
-7z"/>
<path d="M4048 2933 c7 -3 16 -2 19 1 4 3 -2 6 -13 5 -11 0 -14 -3 -6 -6z"/>
<path d="M12480 6394 c-142 -19 -326 -90 -451 -175 -82 -55 -193 -166 -248
-248 -62 -90 -125 -231 -152 -336 -19 -74 -23 -116 -23 -235 0 -173 21 -272
89 -416 56 -120 113 -203 200 -289 86 -87 169 -144 289 -200 144 -68 243 -89
416 -89 173 0 272 21 416 89 120 56 203 113 289 200 87 86 144 169 200 289 68
144 89 243 89 416 0 173 -21 272 -89 416 -56 120 -113 203 -200 289 -123 124
-295 222 -465 264 -84 22 -281 35 -360 25z m61 -131 c8 -10 9 -14 2 -10 -7 5
-13 -2 -16 -20 -3 -23 -4 -21 -6 10 -1 42 1 44 20 20z m39 -19 c0 -19 -4 -33
-8 -30 -8 5 -4 66 4 66 2 0 4 -16 4 -36z m93 23 c17 14 19 15 9 1 -10 -13 -11
-22 -2 -40 10 -21 10 -22 -4 -4 -8 10 -19 15 -25 11 -7 -4 -11 4 -10 22 1 18
3 22 6 10 5 -18 5 -18 26 0z m-230 -10 c3 -8 -1 -14 -9 -14 -8 0 -14 6 -14 14
0 7 4 13 9 13 5 0 11 -6 14 -13z m385 -21 c-7 -8 -15 -12 -17 -11 -5 6 10 25
20 25 5 0 4 -6 -3 -14z m-514 -11 c-4 -8 -1 -15 5 -15 6 0 8 -7 4 -17 -5 -13
-2 -15 15 -11 12 4 20 2 16 -3 -10 -18 -35 -9 -44 17 -13 32 -13 44 0 44 5 0
7 -7 4 -15z m39 -5 c3 -11 1 -18 -4 -14 -5 3 -9 12 -9 20 0 20 7 17 13 -6z
m115 -15 c-3 -3 -9 2 -12 12 -6 14 -5 15 5 6 7 -7 10 -15 7 -18z m-45 0 c-3
-9 -8 -14 -10 -11 -3 3 -2 9 2 15 9 16 15 13 8 -4z m440 -17 c-2 -5 -13 -8
-23 -8 -10 0 -21 3 -23 8 -3 4 8 7 23 7 15 0 26 -3 23 -7z m92 -11 c6 -5 3 -7
-7 -3 -10 3 -18 0 -18 -6 0 -6 -2 -9 -5 -6 -3 3 -3 13 1 22 4 9 9 13 13 9 3
-4 11 -12 16 -16z m-775 -59 c0 -4 7 -5 15 -2 8 4 15 4 15 1 0 -3 -7 -7 -15
-11 -10 -3 -20 5 -30 27 -14 29 -14 30 0 13 8 -11 15 -23 15 -28z m924 14 c3
-5 -1 -9 -9 -9 -8 0 -12 4 -9 9 3 4 7 8 9 8 2 0 6 -4 9 -8z m-989 -42 c25 -16
26 -19 8 -17 -12 0 -19 5 -17 9 5 7 -10 12 -28 9 -5 0 -8 4 -8 9 0 15 11 12
45 -10z m957 8 c-9 -9 -9 -15 1 -27 11 -14 10 -14 -6 -2 -13 10 -15 17 -6 27
6 8 14 14 17 14 3 0 1 -5 -6 -12z m124 -40 c10 -12 13 -18 6 -14 -8 5 -24 -1
-40 -15 l-27 -24 24 27 c12 14 20 31 16 37 -11 18 1 12 21 -11z m-1166 -33
c21 -22 22 -25 5 -25 -10 0 -15 3 -12 7 4 3 0 15 -10 25 -25 28 -10 22 17 -7z
m-38 -12 c-10 -4 -9 -9 4 -24 26 -28 11 -23 -16 6 l-23 25 24 -1 c13 0 18 -3
11 -6z m1252 -26 c-2 -7 -14 -19 -27 -26 -21 -13 -21 -12 2 13 27 29 33 32 25
13z m46 -20 c0 -2 -10 -13 -23 -25 -21 -20 -23 -20 -23 -3 0 10 6 17 12 14 7
-2 15 0 19 6 6 10 15 15 15 8z m-1338 -69 c-8 -8 -9 -4 -5 13 4 13 8 18 11 10
2 -7 -1 -18 -6 -23z m664 -80 c23 -46 26 -48 65 -48 l41 0 -49 -39 c-26 -21
-68 -59 -91 -84 l-44 -45 64 1 c71 0 128 -20 172 -61 54 -51 60 -79 66 -302
l5 -205 50 1 c32 1 78 13 123 32 l72 30 0 -49 0 -49 -28 31 -28 32 -70 -28
c-38 -15 -90 -30 -115 -33 -75 -7 -79 4 -79 241 0 218 -5 240 -59 292 -29 27
-39 30 -96 30 -35 0 -66 -3 -69 -6 -4 -3 5 -26 19 -50 25 -44 25 -46 25 -281
l0 -238 -39 0 -40 0 -3 245 c-3 215 -5 246 -20 262 -17 16 -18 15 -33 -20 -12
-29 -15 -82 -15 -262 l0 -225 -36 0 -36 0 4 223 c4 177 8 231 21 267 27 72 97
152 182 209 l77 51 -46 0 -46 0 0 76 c0 69 2 75 16 63 8 -7 27 -34 40 -61z
m684 68 c0 -2 -8 -10 -17 -17 -16 -13 -17 -12 -4 4 13 16 21 21 21 13z m-1435
-36 c3 -6 -1 -7 -9 -4 -18 7 -21 14 -7 14 6 0 13 -4 16 -10z m1485 -14 c0 -2
-7 -7 -16 -10 -8 -3 -12 -2 -9 4 6 10 25 14 25 6z m30 -51 c-14 -16 -46 -20
-54 -6 -3 4 6 6 20 3 20 -4 26 0 31 19 4 13 8 18 11 11 2 -7 -2 -19 -8 -27z
m-1535 -21 c18 -13 17 -13 -11 0 -17 8 -35 12 -38 8 -4 -3 -4 1 -1 10 5 12 10
14 18 7 7 -5 21 -16 32 -25z m1582 -40 c-3 -3 -12 -4 -19 -1 -8 3 -5 6 6 6 11
1 17 -2 13 -5z m-1611 -40 c-9 -8 -16 -20 -16 -26 0 -6 -9 -3 -20 7 -29 26
-25 35 16 35 32 0 34 -1 20 -16z m1605 -2 c-7 -2 -18 1 -23 6 -8 8 -4 9 13 5
13 -4 18 -8 10 -11z m-4 -68 c-3 -3 -12 -4 -19 -1 -8 3 -5 6 6 6 11 1 17 -2
13 -5z m-1650 -20 c-3 -3 -12 -4 -19 -1 -8 3 -5 6 6 6 11 1 17 -2 13 -5z m33
-8 c0 -2 -7 -7 -16 -10 -8 -3 -12 -2 -9 4 6 10 25 14 25 6z m640 -5 c0 -12
-46 -48 -71 -56 -43 -14 -49 -50 -49 -300 l0 -235 -45 0 -45 0 0 84 c0 66 -3
85 -15 90 -11 4 -21 -8 -36 -39 -18 -39 -63 -85 -83 -85 -3 0 -6 36 -6 80 l0
80 70 0 70 0 1 98 c1 177 18 225 95 269 39 23 114 31 114 14z m466 -16 c75
-44 84 -78 84 -303 0 -214 6 -193 -67 -216 l-23 -7 0 219 c0 205 -1 221 -20
245 -11 14 -35 29 -53 33 -35 7 -80 38 -70 48 17 16 108 5 149 -19z m-1161 -5
c-3 -5 2 -10 12 -11 11 0 13 -3 5 -6 -7 -3 -20 -2 -30 2 -14 5 -14 7 -2 15 19
12 23 12 15 0z m1735 -20 c0 -5 -7 -7 -15 -4 -8 4 -15 8 -15 10 0 2 7 4 15 4
8 0 15 -4 15 -10z m-769 -17 c12 -15 14 -48 11 -170 l-4 -153 -44 0 -44 0 0
120 c0 118 10 169 41 207 15 17 23 16 40 -4z m-874 -473 c-14 -11 -31 -20 -39
-20 -7 0 1 9 17 20 39 26 55 26 22 0z m1547 -5 c11 -8 18 -17 15 -19 -2 -3
-15 4 -29 14 -14 11 -20 20 -15 19 6 0 19 -6 29 -14z m-394 -35 c0 -17 -7 -20
-47 -20 -50 0 -50 8 0 27 44 16 47 16 47 -7z m360 1 c0 -5 -9 -7 -20 -4 -11 3
-20 7 -20 9 0 2 9 4 20 4 11 0 20 -4 20 -9z m-1436 -56 c-4 -8 -14 -15 -24
-15 -10 0 -26 -3 -36 -7 -12 -4 -15 -3 -10 5 4 7 18 12 32 12 13 0 24 5 24 10
0 6 4 10 10 10 5 0 7 -7 4 -15z m1376 -15 c0 -5 -2 -10 -4 -10 -3 0 -8 5 -11
10 -3 6 -1 10 4 10 6 0 11 -4 11 -10z m34 -16 c9 -24 2 -26 -12 -4 -7 11 -8
20 -3 20 5 0 12 -7 15 -16z m-1438 -22 c-17 -16 -18 -16 -5 5 7 12 15 20 18
17 3 -2 -3 -12 -13 -22z m1365 -59 l24 -28 -30 25 c-16 14 -32 26 -34 28 -2 1
0 2 6 2 5 0 20 -12 34 -27z m-21 -35 c0 -6 -6 -5 -15 2 -8 7 -15 14 -15 16 0
2 7 1 15 -2 8 -4 15 -11 15 -16z m-1215 -13 c-16 -14 -34 -25 -39 -25 -6 0 5
11 24 25 43 32 54 32 15 0z m88 -75 c-3 -10 -11 -24 -18 -30 -11 -10 -12 -6
-2 19 13 34 28 43 20 11z m32 0 c-3 -5 -12 -10 -18 -10 -7 0 -6 4 3 10 19 12
23 12 15 0z m941 -43 c14 -30 14 -31 -1 -12 -25 30 -39 59 -26 51 6 -4 18 -22
27 -39z m-31 3 c3 -5 1 -10 -4 -10 -6 0 -11 5 -11 10 0 6 2 10 4 10 3 0 8 -4
11 -10z m-800 -39 c-3 -6 -11 -11 -16 -11 -5 0 -4 6 3 14 14 16 24 13 13 -3z
m682 -13 c-3 -8 -6 -5 -6 6 -1 11 2 17 5 13 3 -3 4 -12 1 -19z m-722 -8 c-3
-5 -11 -10 -16 -10 -6 0 -7 5 -4 10 3 6 11 10 16 10 6 0 7 -4 4 -10z m26 -23
c-10 -9 -11 -8 -5 6 3 10 9 15 12 12 3 -3 0 -11 -7 -18z m130 -9 c-3 -21 -6
-26 -9 -15 -3 17 3 47 11 47 2 0 1 -15 -2 -32z m562 2 c3 -11 1 -20 -4 -20 -5
0 -9 9 -9 20 0 11 2 20 4 20 2 0 6 -9 9 -20z m24 -2 c-3 -8 -6 -5 -6 6 -1 11
2 17 5 13 3 -3 4 -12 1 -19z m-190 -50 c-2 -13 -4 -3 -4 22 0 25 2 35 4 23 2
-13 2 -33 0 -45z m-140 -10 c-2 -13 -4 -5 -4 17 -1 22 1 32 4 23 2 -10 2 -28
0 -40z m183 9 c0 -5 -4 -5 -10 -2 -5 3 -10 14 -10 23 0 15 2 15 10 2 5 -8 10
-19 10 -23z m-223 -14 c-3 -10 -5 -4 -5 12 0 17 2 24 5 18 2 -7 2 -21 0 -30z
m150 5 c-3 -8 -6 -5 -6 6 -1 11 2 17 5 13 3 -3 4 -12 1 -19z"/>
<path d="M11775 5680 c3 -5 10 -10 16 -10 5 0 9 5 9 10 0 6 -7 10 -16 10 -8 0
-12 -4 -9 -10z"/>
<path d="M11880 4020 l0 -100 25 0 c22 0 25 4 25 35 0 32 2 35 30 35 23 0 30
4 30 20 0 16 -7 20 -30 20 -25 0 -30 4 -30 25 0 21 5 25 30 25 23 0 30 4 30
20 0 18 -7 20 -55 20 l-55 0 0 -100z"/>
<path d="M12110 4020 l0 -100 55 0 c48 0 55 2 55 20 0 16 -7 20 -35 20 -28 0
-35 4 -35 20 0 16 7 20 30 20 23 0 30 4 30 20 0 16 -7 20 -30 20 -23 0 -30 4
-30 20 0 16 7 20 35 20 28 0 35 4 35 20 0 18 -7 20 -55 20 l-55 0 0 -100z"/>
<path d="M12330 4020 c0 -93 1 -100 20 -100 17 0 19 8 22 73 l3 72 25 -73 c20
-60 28 -72 44 -70 14 2 26 21 42 68 l22 65 1 -67 c1 -66 2 -68 26 -68 l25 0 0
100 0 100 -33 0 c-32 0 -34 -2 -56 -72 l-24 -73 -25 73 c-25 70 -27 72 -59 72
l-33 0 0 -100z"/>
<path d="M12920 4061 c0 -69 15 -118 40 -131 26 -14 73 -12 94 3 20 15 35 73
36 140 0 43 -2 47 -25 47 -23 0 -24 -3 -27 -77 l-3 -78 -30 0 -30 0 -3 78 c-3
74 -4 77 -27 77 -24 0 -25 -3 -25 -59z"/>
<path d="M13223 4105 c-23 -16 -30 -49 -15 -71 4 -6 22 -19 40 -28 17 -9 32
-24 32 -33 0 -13 -8 -15 -40 -10 -34 4 -40 2 -40 -13 0 -20 19 -30 59 -30 37
0 71 26 71 55 0 27 -9 37 -58 66 -40 23 -32 42 15 37 30 -4 34 -1 31 16 -4 27
-63 34 -95 11z"/>
<path d="M12692 4044 c-16 -11 -22 -25 -22 -54 0 -44 26 -70 70 -70 44 0 70
26 70 70 0 44 -26 70 -70 70 -14 0 -36 -7 -48 -16z m73 -54 c0 -31 -3 -35 -25
-35 -19 0 -26 6 -28 23 -5 36 5 54 30 50 19 -2 23 -9 23 -38z"/>
<path d="M11929 3553 c0 -16 -1 -47 -3 -71 -1 -24 1 -45 6 -48 4 -3 8 29 8 70
0 42 -2 76 -5 76 -3 0 -5 -12 -6 -27z"/>
<path d="M13023 3505 c0 -44 2 -61 4 -37 2 23 2 59 0 80 -2 20 -4 1 -4 -43z"/>
<path d="M13063 3505 c0 -44 2 -61 4 -37 2 23 2 59 0 80 -2 20 -4 1 -4 -43z"/>
<path d="M15092 3510 l-2 -76 29 -2 c17 -1 34 5 42 15 13 15 12 15 -7 3 -39
-24 -53 -7 -57 67 l-3 68 -2 -75z"/>
<path d="M15550 3551 c0 -24 -3 -28 -23 -24 -14 3 -29 -2 -38 -13 -13 -16 -12
-16 7 -4 34 21 56 6 53 -34 -2 -19 0 -38 4 -42 4 -4 7 27 7 69 0 43 -2 77 -5
77 -3 0 -5 -13 -5 -29z"/>
<path d="M8602 3500 l1 -75 7 55 c4 30 7 49 8 41 1 -8 5 -12 8 -9 3 4 -1 19
-10 35 -15 27 -15 26 -14 -47z"/>
<path d="M8705 3539 c-9 -17 -14 -33 -12 -36 3 -2 9 6 14 19 6 18 9 11 14 -37
l6 -60 1 73 c1 39 0 72 -3 72 -2 0 -12 -14 -20 -31z"/>
<path d="M9322 3498 c0 -40 3 -59 5 -41 3 26 9 33 31 36 l27 4 -27 2 c-24 1
-28 5 -28 30 0 25 5 30 28 34 25 4 25 4 -5 6 l-33 1 2 -72z"/>
<path d="M10053 3563 c9 -2 23 -2 30 0 6 3 -1 5 -18 5 -16 0 -22 -2 -12 -5z"/>
<path d="M10802 3498 c0 -40 3 -59 5 -41 3 23 10 33 26 36 l22 4 -22 2 c-19 1
-23 7 -23 32 0 27 3 30 28 27 22 -2 27 -8 27 -30 -1 -14 3 -24 7 -22 12 8 10
38 -4 52 -7 7 -25 12 -40 12 l-28 0 2 -72z"/>
<path d="M12032 3498 c0 -40 3 -58 5 -40 5 41 27 42 48 2 9 -16 18 -30 21 -30
2 0 -3 14 -11 31 -13 25 -14 34 -4 47 11 14 11 15 -1 5 -26 -24 -50 -16 -50
17 0 25 4 30 24 30 13 0 27 -5 29 -10 3 -6 4 -5 3 2 -1 7 -17 14 -34 16 l-32
3 2 -73z"/>
<path d="M12822 3498 c0 -40 3 -59 5 -41 3 26 9 33 31 36 l27 4 -27 2 c-24 1
-28 5 -28 30 0 25 5 30 28 34 25 4 25 4 -5 6 l-33 1 2 -72z"/>
<path d="M10009 3543 c-13 -16 -12 -17 4 -4 9 7 17 15 17 17 0 8 -8 3 -21 -13z"/>
<path d="M13679 3545 c-2 -11 -1 -42 2 -70 l6 -50 1 47 c2 35 6 48 20 51 15 4
15 5 0 6 -9 0 -18 9 -20 19 -3 15 -4 14 -9 -3z"/>
<path d="M15651 3548 c-1 -10 -7 -18 -13 -18 -10 0 -10 -2 -1 -8 6 -4 13 -25
15 -46 2 -22 9 -41 16 -42 7 -1 8 0 2 3 -15 7 -13 83 3 83 8 0 9 3 1 8 -6 4
-14 14 -17 22 -4 12 -6 11 -6 -2z"/>
<path d="M8769 3513 c-12 -16 -12 -17 1 -7 8 7 24 14 35 17 19 4 19 5 -1 6
-12 0 -28 -7 -35 -16z"/>
<path d="M8893 3524 c-7 -3 -13 -11 -13 -17 0 -8 4 -7 12 1 18 18 46 15 52 -5
4 -14 4 -14 3 2 -2 20 -29 29 -54 19z"/>
<path d="M8983 3480 c0 -30 2 -43 4 -27 2 15 2 39 0 55 -2 15 -4 2 -4 -28z"/>
<path d="M9023 3523 c9 -2 23 -2 30 0 6 3 -1 5 -18 5 -16 0 -22 -2 -12 -5z"/>
<path d="M9089 3513 c-12 -16 -12 -17 1 -7 8 7 24 14 35 17 19 4 19 5 -1 6
-12 0 -28 -7 -35 -16z"/>
<path d="M9193 3480 c0 -30 2 -43 4 -27 2 15 2 39 0 55 -2 15 -4 2 -4 -28z"/>
<path d="M9445 3523 c11 -3 26 -12 33 -21 6 -9 12 -11 12 -6 0 17 -23 34 -44
33 -21 -1 -21 -1 -1 -6z"/>
<path d="M9522 3475 l1 -50 6 44 c4 31 12 46 26 52 17 6 15 7 -7 6 -27 -1 -28
-3 -26 -52z"/>
<path d="M9589 3513 c-13 -16 -12 -17 3 -4 10 7 27 11 38 8 11 -3 18 -1 14 4
-9 15 -41 10 -55 -8z"/>
<path d="M9683 3480 c0 -30 2 -43 4 -27 2 15 2 39 0 55 -2 15 -4 2 -4 -28z"/>
<path d="M9729 3513 c-13 -15 -12 -15 7 -3 31 19 54 6 54 -30 0 -36 -23 -49
-54 -30 -19 12 -20 12 -7 -4 9 -11 24 -16 38 -13 20 4 24 1 21 -17 -2 -14 -13
-23 -33 -27 -28 -6 -28 -7 -4 -8 38 -2 49 17 49 84 0 60 0 61 -29 63 -17 1
-34 -5 -42 -15z"/>
<path d="M9853 3524 c-7 -3 -13 -11 -13 -17 0 -8 4 -7 12 1 18 18 46 15 52 -5
4 -14 4 -14 3 2 -2 20 -29 29 -54 19z"/>
<path d="M10122 3495 c-2 -43 11 -65 38 -64 10 0 9 3 -5 8 -14 6 -22 21 -26
52 l-6 44 -1 -40z"/>
<path d="M10188 3488 c-3 -24 -1 -47 3 -52 5 -6 9 13 9 42 0 63 -6 68 -12 10z"/>
<path d="M10241 3521 c-7 -5 -12 -13 -10 -18 2 -5 12 -1 22 9 18 19 12 24 -12
9z"/>
<path d="M10398 3520 c35 -15 27 -33 -13 -28 -30 3 -35 1 -34 -17 0 -11 3 -14
6 -7 2 6 20 12 39 12 21 0 34 5 34 13 0 18 -21 37 -39 36 -10 0 -7 -4 7 -9z"/>
<path d="M10473 3524 c-7 -3 -13 -13 -13 -22 1 -15 2 -15 11 1 11 19 44 23 52
7 3 -6 4 -5 3 2 -3 14 -33 20 -53 12z"/>
<path d="M10598 3523 c6 -2 18 -2 25 0 6 3 1 5 -13 5 -14 0 -19 -2 -12 -5z"/>
<path d="M10640 3525 c0 -5 5 -17 10 -25 5 -8 10 -10 10 -5 0 6 -5 17 -10 25
-5 8 -10 11 -10 5z"/>
<path d="M10907 3523 c-3 -5 8 -8 23 -8 15 0 26 3 23 8 -2 4 -13 7 -23 7 -10
0 -21 -3 -23 -7z"/>
<path d="M11103 3523 c-7 -2 -13 -12 -13 -21 0 -13 2 -13 14 3 22 30 46 12 48
-37 l1 -43 6 45 c5 36 10 45 31 51 21 6 22 7 5 8 -12 1 -26 -4 -32 -10 -8 -8
-13 -8 -17 0 -7 11 -22 13 -43 4z"/>
<path d="M11259 3513 c-13 -16 -12 -17 3 -4 10 7 27 11 38 8 11 -3 18 -1 14 4
-9 15 -41 10 -55 -8z"/>
<path d="M11353 3480 c0 -30 2 -43 4 -27 2 15 2 39 0 55 -2 15 -4 2 -4 -28z"/>
<path d="M11398 3520 c17 -8 22 -18 24 -52 l1 -43 4 38 c5 41 -10 67 -36 66
-11 0 -9 -3 7 -9z"/>
<path d="M11463 3523 c9 -2 23 -2 30 0 6 3 -1 5 -18 5 -16 0 -22 -2 -12 -5z"/>
<path d="M11526 3521 c-3 -4 6 -6 19 -3 14 2 25 6 25 8 0 8 -39 4 -44 -5z"/>
<path d="M11688 3520 c26 -11 29 -27 5 -33 -16 -4 -16 -5 1 -6 13 -1 17 -6 13
-21 -3 -11 -1 -23 4 -26 10 -6 12 56 3 80 -3 9 -16 16 -28 15 -21 0 -21 0 2
-9z"/>
<path d="M11750 3480 c0 -29 2 -51 4 -49 8 8 10 88 3 95 -4 4 -7 -17 -7 -46z"/>
<path d="M11780 3526 c0 -2 9 -6 20 -9 11 -3 18 -1 14 4 -5 9 -34 13 -34 5z"/>
<path d="M11888 3523 c7 -3 16 -2 19 1 4 3 -2 6 -13 5 -11 0 -14 -3 -6 -6z"/>
<path d="M12142 3518 c-7 -7 -12 -24 -12 -38 0 -32 17 -50 45 -49 17 1 16 2
-5 8 -14 4 -26 15 -28 24 -3 13 4 17 32 17 23 0 36 5 36 13 0 18 -21 37 -40
37 -9 0 -21 -5 -28 -12z m56 -15 c2 -9 -7 -13 -27 -13 -30 0 -39 9 -24 24 11
10 46 3 51 -11z"/>
<path d="M12268 3523 c6 -2 18 -2 25 0 6 3 1 5 -13 5 -14 0 -19 -2 -12 -5z"/>
<path d="M12332 3518 c-7 -7 -12 -24 -12 -38 0 -32 17 -50 45 -49 17 1 16 2
-5 8 -14 4 -26 15 -28 24 -3 13 4 17 32 17 23 0 36 5 36 13 0 18 -21 37 -40
37 -9 0 -21 -5 -28 -12z m56 -15 c2 -9 -7 -13 -27 -13 -30 0 -39 9 -24 24 11
10 46 3 51 -11z"/>
<path d="M12483 3523 c-7 -2 -13 -12 -13 -21 1 -15 2 -15 11 1 14 24 48 21 59
-5 5 -14 9 -17 9 -7 2 30 -31 47 -66 32z"/>
<path d="M12583 3523 c9 -2 23 -2 30 0 6 3 -1 5 -18 5 -16 0 -22 -2 -12 -5z"/>
<path d="M12658 3523 c7 -3 16 -2 19 1 4 3 -2 6 -13 5 -11 0 -14 -3 -6 -6z"/>
<path d="M12945 3523 c11 -3 26 -12 33 -21 6 -9 12 -11 12 -6 0 17 -23 34 -44
33 -21 -1 -21 -1 -1 -6z"/>
<path d="M13109 3513 c-12 -16 -12 -17 1 -7 8 7 24 14 35 17 19 4 19 5 -1 6
-12 0 -28 -7 -35 -16z"/>
<path d="M13260 3525 c0 -5 5 -17 10 -25 5 -8 10 -10 10 -5 0 6 -5 17 -10 25
-5 8 -10 11 -10 5z"/>
<path d="M13403 3495 c0 -22 2 -30 4 -17 2 12 2 30 0 40 -3 9 -5 -1 -4 -23z"/>
<path d="M13468 3488 c-3 -39 -5 -43 -30 -43 -14 1 -24 -3 -22 -7 3 -5 19 -7
35 -6 28 2 29 4 29 50 0 59 -8 63 -12 6z"/>
<path d="M13510 3455 c0 -43 3 -76 6 -72 7 7 7 138 -1 145 -3 3 -5 -30 -5 -73z"/>
<path d="M13540 3526 c0 -2 11 -6 25 -8 13 -3 22 -1 19 3 -5 9 -44 13 -44 5z"/>
<path d="M13739 3513 c-12 -16 -12 -17 1 -7 8 7 24 14 35 17 19 4 19 5 -1 6
-12 0 -28 -7 -35 -16z"/>
<path d="M13948 3520 c35 -15 27 -33 -13 -28 -30 3 -35 1 -34 -17 0 -11 3 -14
6 -7 2 6 20 12 39 12 21 0 34 5 34 13 0 18 -21 37 -39 36 -10 0 -7 -4 7 -9z"/>
<path d="M14013 3480 c0 -30 2 -43 4 -27 2 15 2 39 0 55 -2 15 -4 2 -4 -28z"/>
<path d="M14059 3513 c-13 -15 -12 -15 7 -3 12 7 29 10 38 7 15 -6 17 -17 13
-68 -3 -36 -1 -56 4 -48 5 8 9 39 9 69 0 54 -1 56 -29 58 -17 1 -34 -5 -42
-15z"/>
<path d="M14163 3480 c0 -30 2 -43 4 -27 2 15 2 39 0 55 -2 15 -4 2 -4 -28z"/>
<path d="M14208 3520 c17 -8 22 -18 24 -52 l1 -43 4 38 c5 41 -10 67 -36 66
-11 0 -9 -3 7 -9z"/>
<path d="M14358 3523 c6 -2 18 -2 25 0 6 3 1 5 -13 5 -14 0 -19 -2 -12 -5z"/>
<path d="M14412 3495 c-2 -43 11 -65 38 -64 10 0 9 3 -5 8 -14 6 -22 21 -26
52 l-6 44 -1 -40z"/>
<path d="M14478 3488 c-3 -24 -1 -47 3 -52 5 -6 9 13 9 42 0 63 -6 68 -12 10z"/>
<path d="M14522 3475 l1 -50 6 44 c4 31 12 46 26 52 17 6 15 7 -7 6 -27 -1
-28 -3 -26 -52z"/>
<path d="M14688 3520 c35 -15 27 -33 -13 -28 -30 3 -35 1 -34 -17 0 -11 3 -14
6 -7 2 6 20 12 39 12 21 0 34 5 34 13 0 18 -21 37 -39 36 -10 0 -7 -4 7 -9z"/>
<path d="M14763 3524 c-7 -3 -13 -13 -13 -22 1 -15 2 -15 11 1 11 19 44 23 52
7 3 -6 4 -5 3 2 -3 14 -33 20 -53 12z"/>
<path d="M14888 3523 c6 -2 18 -2 25 0 6 3 1 5 -13 5 -14 0 -19 -2 -12 -5z"/>
<path d="M14936 3517 c3 -10 9 -15 12 -12 3 3 0 11 -7 18 -10 9 -11 8 -5 -6z"/>
<path d="M15135 3523 c11 -3 24 -10 28 -17 6 -7 7 -6 4 4 -2 8 -14 16 -28 17
-19 1 -20 1 -4 -4z"/>
<path d="M15238 3520 c26 -11 29 -27 5 -33 -16 -4 -16 -5 1 -6 13 -1 17 -6 13
-21 -3 -11 -1 -23 4 -26 10 -6 12 56 3 80 -3 9 -16 16 -28 15 -21 0 -21 0 2
-9z"/>
<path d="M15306 3521 c-3 -4 6 -6 19 -3 14 2 25 6 25 8 0 8 -39 4 -44 -5z"/>
<path d="M15418 3520 c35 -15 27 -33 -13 -28 -30 3 -35 1 -34 -17 0 -11 3 -14
6 -7 2 6 20 12 39 12 21 0 34 5 34 13 0 18 -21 37 -39 36 -10 0 -7 -4 7 -9z"/>
<path d="M15808 3520 c26 -11 29 -27 5 -33 -16 -4 -16 -5 1 -6 13 -1 17 -6 13
-21 -3 -11 -1 -23 4 -26 10 -6 12 56 3 80 -3 9 -16 16 -28 15 -21 0 -21 0 2
-9z"/>
<path d="M15870 3480 c0 -29 2 -51 4 -49 8 8 10 88 3 95 -4 4 -7 -17 -7 -46z"/>
<path d="M15900 3526 c0 -2 9 -6 20 -9 11 -3 18 -1 14 4 -5 9 -34 13 -34 5z"/>
<path d="M15998 3523 c7 -3 16 -2 19 1 4 3 -2 6 -13 5 -11 0 -14 -3 -6 -6z"/>
<path d="M16066 3522 c-3 -5 6 -7 19 -4 29 5 36 -24 8 -31 -17 -4 -16 -5 0 -6
27 -2 17 -35 -12 -39 -20 -3 -23 0 -18 19 4 16 3 19 -5 11 -19 -19 -1 -43 32
-40 30 2 31 4 28 48 -3 37 -7 46 -25 48 -11 2 -24 -1 -27 -6z"/>
<path d="M16188 3523 c6 -2 18 -2 25 0 6 3 1 5 -13 5 -14 0 -19 -2 -12 -5z"/>
<path d="M16243 3523 c9 -2 23 -2 30 0 6 3 -1 5 -18 5 -16 0 -22 -2 -12 -5z"/>
<path d="M16303 3480 c0 -30 2 -43 4 -27 2 15 2 39 0 55 -2 15 -4 2 -4 -28z"/>
<path d="M16349 3513 c-12 -16 -12 -17 1 -7 8 7 24 14 35 17 19 4 19 5 -1 6
-12 0 -28 -7 -35 -16z"/>
<path d="M16473 3524 c-7 -3 -13 -11 -13 -17 0 -8 4 -7 12 1 18 18 46 15 52
-5 4 -14 4 -14 3 2 -2 20 -29 29 -54 19z"/>
<path d="M16566 3521 c-3 -4 6 -6 19 -3 14 2 25 6 25 8 0 8 -39 4 -44 -5z"/>
<path d="M9992 3500 c0 -14 2 -19 5 -12 2 6 2 18 0 25 -3 6 -5 1 -5 -13z"/>
<path d="M13211 3504 c0 -11 3 -14 6 -6 3 7 2 16 -1 19 -3 4 -6 -2 -5 -13z"/>
<path d="M11213 3470 c0 -25 2 -35 4 -22 2 12 2 32 0 45 -2 12 -4 2 -4 -23z"/>
<path d="M12630 3502 c0 -7 11 -17 25 -24 13 -6 26 -18 28 -27 4 -14 5 -14 6
1 0 10 -9 23 -21 29 -13 7 -26 17 -30 23 -5 8 -8 7 -8 -2z"/>
<path d="M15970 3502 c0 -7 11 -17 25 -24 13 -6 26 -18 28 -27 4 -14 5 -14 6
1 0 10 -9 23 -21 29 -13 7 -26 17 -30 23 -5 8 -8 7 -8 -2z"/>
<path d="M8842 3480 c0 -14 2 -19 5 -12 2 6 2 18 0 25 -3 6 -5 1 -5 -13z"/>
<path d="M9162 3480 c0 -14 2 -19 5 -12 2 6 2 18 0 25 -3 6 -5 1 -5 -13z"/>
<path d="M9402 3480 c0 -14 2 -19 5 -12 2 6 2 18 0 25 -3 6 -5 1 -5 -13z"/>
<path d="M9615 3490 l-40 -7 43 -2 c23 0 42 4 42 9 0 6 -1 9 -2 9 -2 -1 -21
-5 -43 -9z"/>
<path d="M10561 3480 c-1 -31 16 -50 44 -49 17 1 16 2 -5 8 -17 5 -27 16 -31
36 -6 28 -7 28 -8 5z"/>
<path d="M11285 3490 l-40 -7 43 -2 c23 0 42 4 42 9 0 6 -1 9 -2 9 -2 -1 -21
-5 -43 -9z"/>
<path d="M11823 3465 c0 -22 2 -30 4 -17 2 12 2 30 0 40 -3 9 -5 -1 -4 -23z"/>
<path d="M11851 3480 c-1 -31 16 -50 44 -49 17 1 16 2 -5 8 -17 5 -27 16 -31
36 -6 28 -7 28 -8 5z"/>
<path d="M12231 3480 c-1 -31 16 -50 44 -49 17 1 16 2 -5 8 -17 5 -27 16 -31
36 -6 28 -7 28 -8 5z"/>
<path d="M12902 3480 c0 -14 2 -19 5 -12 2 6 2 18 0 25 -3 6 -5 1 -5 -13z"/>
<path d="M13182 3480 c0 -14 2 -19 5 -12 2 6 2 18 0 25 -3 6 -5 1 -5 -13z"/>
<path d="M13591 3488 c0 -9 -4 -25 -7 -35 -5 -17 -5 -17 6 0 6 10 9 25 7 35
-4 15 -5 15 -6 0z"/>
<path d="M13812 3480 c0 -14 2 -19 5 -12 2 6 2 18 0 25 -3 6 -5 1 -5 -13z"/>
<path d="M14321 3480 c-1 -31 16 -50 44 -49 17 1 16 2 -5 8 -17 5 -27 16 -31
36 -6 28 -7 28 -8 5z"/>
<path d="M14851 3480 c-1 -31 16 -50 44 -49 17 1 16 2 -5 8 -17 5 -27 16 -31
36 -6 28 -7 28 -8 5z"/>
<path d="M15943 3465 c0 -22 2 -30 4 -17 2 12 2 30 0 40 -3 9 -5 -1 -4 -23z"/>
<path d="M16151 3480 c-1 -31 16 -50 44 -49 17 1 16 2 -5 8 -17 5 -27 16 -31
36 -6 28 -7 28 -8 5z"/>
<path d="M16422 3480 c0 -14 2 -19 5 -12 2 6 2 18 0 25 -3 6 -5 1 -5 -13z"/>
<path d="M10928 3483 c6 -2 18 -2 25 0 6 3 1 5 -13 5 -14 0 -19 -2 -12 -5z"/>
<path d="M14041 3480 c0 -8 4 -22 9 -30 12 -18 12 -2 0 25 -6 13 -9 15 -9 5z"/>
<path d="M15471 3480 c0 -8 4 -22 9 -30 12 -18 12 -2 0 25 -6 13 -9 15 -9 5z"/>
<path d="M10895 3469 c-4 -6 -5 -12 -2 -15 2 -3 7 2 10 11 7 17 1 20 -8 4z"/>
<path d="M11557 3462 c4 -16 -1 -21 -19 -25 l-23 -4 23 -2 c25 -1 40 25 24 41
-8 8 -9 5 -5 -10z"/>
<path d="M15337 3462 c4 -16 -1 -21 -19 -25 l-23 -4 23 -2 c25 -1 40 25 24 41
-8 8 -9 5 -5 -10z"/>
<path d="M9477 3456 c-3 -8 -16 -16 -29 -19 -21 -4 -21 -4 -2 -6 21 -1 52 24
42 35 -3 3 -8 -2 -11 -10z"/>
<path d="M10006 3457 c7 -19 45 -32 66 -24 7 3 2 6 -11 6 -14 1 -33 9 -43 18
-18 16 -18 16 -12 0z"/>
<path d="M12470 3458 c0 -22 45 -35 65 -18 8 7 15 18 15 24 0 6 -5 3 -11 -6
-5 -10 -19 -18 -29 -18 -10 0 -24 8 -29 18 -10 16 -10 16 -11 0z"/>
<path d="M12977 3456 c-3 -8 -16 -16 -29 -19 -21 -4 -21 -4 -2 -6 21 -1 52 24
42 35 -3 3 -8 -2 -11 -10z"/>
<path d="M13296 3455 c-9 -26 -7 -32 5 -12 6 10 9 21 6 23 -2 3 -7 -2 -11 -11z"/>
<path d="M8656 3447 c3 -10 9 -15 12 -12 3 3 0 11 -7 18 -10 9 -11 8 -5 -6z"/>
<path d="M8769 3448 c7 -10 23 -17 35 -17 20 1 20 2 1 6 -11 3 -27 10 -35 17
-13 10 -13 9 -1 -6z"/>
<path d="M9089 3448 c7 -10 23 -17 35 -17 20 1 20 2 1 6 -11 3 -27 10 -35 17
-13 10 -13 9 -1 -6z"/>
<path d="M9589 3448 c7 -10 23 -17 35 -17 20 1 20 2 1 6 -11 3 -27 10 -35 17
-13 10 -13 9 -1 -6z"/>
<path d="M10944 3451 c-5 -5 -18 -11 -29 -14 l-20 -5 20 -1 c22 -1 52 15 44
23 -3 3 -10 2 -15 -3z"/>
<path d="M11259 3448 c7 -10 23 -17 35 -17 20 1 20 2 1 6 -11 3 -27 10 -35 17
-13 10 -13 9 -1 -6z"/>
<path d="M13109 3448 c7 -10 23 -17 35 -17 20 1 20 2 1 6 -11 3 -27 10 -35 17
-13 10 -13 9 -1 -6z"/>
<path d="M13235 3449 c-4 -6 -5 -12 -2 -15 2 -3 7 2 10 11 7 17 1 20 -8 4z"/>
<path d="M13739 3448 c7 -10 23 -17 35 -17 20 1 20 2 1 6 -11 3 -27 10 -35 17
-13 10 -13 9 -1 -6z"/>
<path d="M14965 3443 c4 -15 -1 -29 -14 -42 -12 -12 -17 -21 -11 -21 5 0 17
11 26 24 12 19 13 29 4 43 -10 16 -10 16 -5 -4z"/>
<path d="M16349 3448 c7 -10 23 -17 35 -17 20 1 20 2 1 6 -11 3 -27 10 -35 17
-13 10 -13 9 -1 -6z"/>
<path d="M9030 3440 c0 -6 7 -10 15 -10 8 0 15 2 15 4 0 2 -7 6 -15 10 -8 3
-15 1 -15 -4z"/>
<path d="M10367 3438 c2 -5 15 -8 28 -8 13 0 26 3 28 8 3 4 -10 7 -28 7 -18 0
-31 -3 -28 -7z"/>
<path d="M10670 3428 c0 -19 2 -20 10 -8 13 19 13 30 0 30 -5 0 -10 -10 -10
-22z"/>
<path d="M11658 3438 c5 -5 16 -8 23 -6 8 3 3 7 -10 11 -17 4 -21 3 -13 -5z"/>
<path d="M13917 3438 c2 -5 15 -8 28 -8 13 0 26 3 28 8 3 4 -10 7 -28 7 -18 0
-31 -3 -28 -7z"/>
<path d="M14657 3438 c2 -5 15 -8 28 -8 13 0 26 3 28 8 3 4 -10 7 -28 7 -18 0
-31 -3 -28 -7z"/>
<path d="M15208 3438 c5 -5 16 -8 23 -6 8 3 3 7 -10 11 -17 4 -21 3 -13 -5z"/>
<path d="M15387 3438 c2 -5 15 -8 28 -8 13 0 26 3 28 8 3 4 -10 7 -28 7 -18 0
-31 -3 -28 -7z"/>
<path d="M15778 3438 c5 -5 16 -8 23 -6 8 3 3 7 -10 11 -17 4 -21 3 -13 -5z"/>
<path d="M16250 3440 c0 -6 7 -10 15 -10 8 0 15 2 15 4 0 2 -7 6 -15 10 -8 3
-15 1 -15 -4z"/>
<path d="M16580 3440 c-23 -7 -23 -8 -3 -9 12 -1 25 4 28 9 3 6 5 10 3 9 -2
-1 -14 -5 -28 -9z"/>
<path d="M11478 3433 c7 -3 16 -2 19 1 4 3 -2 6 -13 5 -11 0 -14 -3 -6 -6z"/>
<path d="M12598 3433 c7 -3 16 -2 19 1 4 3 -2 6 -13 5 -11 0 -14 -3 -6 -6z"/>
<path d="M12648 3433 c7 -3 16 -2 19 1 4 3 -2 6 -13 5 -11 0 -14 -3 -6 -6z"/>
<path d="M13548 3433 c7 -3 16 -2 19 1 4 3 -2 6 -13 5 -11 0 -14 -3 -6 -6z"/>
<path d="M14078 3433 c7 -3 16 -2 19 1 4 3 -2 6 -13 5 -11 0 -14 -3 -6 -6z"/>
<path d="M15508 3433 c7 -3 16 -2 19 1 4 3 -2 6 -13 5 -11 0 -14 -3 -6 -6z"/>
<path d="M15988 3433 c7 -3 16 -2 19 1 4 3 -2 6 -13 5 -11 0 -14 -3 -6 -6z"/>
<path d="M11000 3395 c-7 -9 -8 -15 -2 -15 5 0 12 7 16 15 3 8 4 15 2 15 -2 0
-9 -7 -16 -15z"/>
<path d="M10650 3390 c-9 -6 -10 -10 -3 -10 6 0 15 5 18 10 8 12 4 12 -15 0z"/>
<path d="M14068 3383 c6 -2 18 -2 25 0 6 3 1 5 -13 5 -14 0 -19 -2 -12 -5z"/>
<path d="M10060 3251 c0 -24 -3 -28 -23 -24 -14 3 -29 -2 -38 -13 -13 -16 -12
-16 7 -4 34 21 56 6 53 -34 -2 -19 0 -38 4 -42 4 -4 7 27 7 69 0 43 -2 77 -5
77 -3 0 -5 -13 -5 -29z"/>
<path d="M12793 3205 c0 -44 2 -61 4 -37 2 23 2 59 0 80 -2 20 -4 1 -4 -43z"/>
<path d="M13180 3251 c0 -24 -3 -28 -23 -24 -14 3 -29 -2 -38 -13 -13 -16 -12
-16 7 -4 34 21 56 6 53 -34 -2 -19 0 -38 4 -42 4 -4 7 27 7 69 0 43 -2 77 -5
77 -3 0 -5 -13 -5 -29z"/>
<path d="M13001 3248 c-1 -10 -7 -18 -13 -18 -10 0 -10 -2 -1 -8 6 -4 13 -25
15 -46 2 -22 9 -41 16 -42 7 -1 8 0 2 3 -15 7 -13 83 3 83 8 0 9 3 1 8 -6 4
-14 14 -17 22 -4 12 -6 11 -6 -2z"/>
<path d="M13701 3248 c-1 -10 -7 -18 -13 -18 -10 0 -10 -2 -1 -8 6 -4 13 -25
15 -46 2 -22 9 -41 16 -42 7 -1 8 0 2 3 -15 7 -13 83 3 83 8 0 9 3 1 8 -6 4
-14 14 -17 22 -4 12 -6 11 -6 -2z"/>
<path d="M13919 3245 c-2 -11 -1 -42 2 -70 l6 -50 1 47 c2 35 6 48 20 51 15 4
15 5 0 6 -9 0 -18 9 -20 19 -3 15 -4 14 -9 -3z"/>
<path d="M9797 3223 c-3 -5 8 -8 23 -8 15 0 26 3 23 8 -2 4 -13 7 -23 7 -10 0
-21 -3 -23 -7z"/>
<path d="M9903 3224 c-7 -3 -13 -11 -13 -17 0 -8 4 -7 12 1 18 18 46 15 52 -5
4 -14 4 -14 3 2 -2 20 -29 29 -54 19z"/>
<path d="M10166 3221 c-3 -4 6 -6 19 -3 14 2 25 6 25 8 0 8 -39 4 -44 -5z"/>
<path d="M10232 3200 c0 -19 2 -27 5 -17 2 9 2 25 0 35 -3 9 -5 1 -5 -18z"/>
<path d="M10298 3188 c-3 -39 -5 -43 -30 -43 -14 1 -24 -3 -22 -7 3 -5 19 -7
35 -6 28 2 29 4 29 50 0 59 -8 63 -12 6z"/>
<path d="M10359 3213 c-13 -15 -12 -15 7 -3 29 18 54 6 55 -27 2 -25 2 -25 6
-5 9 45 -40 70 -68 35z"/>
<path d="M10498 3220 c35 -15 27 -33 -13 -28 -30 3 -35 1 -34 -17 0 -11 3 -14
6 -7 2 6 20 12 39 12 21 0 34 5 34 13 0 18 -21 37 -39 36 -10 0 -7 -4 7 -9z"/>
<path d="M10571 3221 c-7 -5 -12 -13 -10 -18 2 -5 12 -1 22 9 18 19 12 24 -12
9z"/>
<path d="M10626 3217 c3 -10 9 -15 12 -12 3 3 0 11 -7 18 -10 9 -11 8 -5 -6z"/>
<path d="M10788 3223 c7 -3 16 -2 19 1 4 3 -2 6 -13 5 -11 0 -14 -3 -6 -6z"/>
<path d="M10852 3218 c-7 -7 -12 -24 -12 -38 0 -32 17 -50 45 -49 17 1 16 2
-5 8 -14 4 -26 15 -28 24 -3 13 4 17 32 17 23 0 36 5 36 13 0 18 -21 37 -40
37 -9 0 -21 -5 -28 -12z m56 -15 c2 -9 -7 -13 -27 -13 -30 0 -39 9 -24 24 11
10 46 3 51 -11z"/>
<path d="M11020 3226 c0 -2 11 -6 25 -8 13 -3 22 -1 19 3 -5 9 -44 13 -44 5z"/>
<path d="M11109 3213 c-12 -16 -12 -17 1 -7 8 7 24 14 35 17 19 4 19 5 -1 6
-12 0 -28 -7 -35 -16z"/>
<path d="M11199 3213 c-12 -16 -12 -17 1 -7 8 7 24 14 35 17 19 4 19 5 -1 6
-12 0 -28 -7 -35 -16z"/>
<path d="M11303 3180 c0 -30 2 -43 4 -27 2 15 2 39 0 55 -2 15 -4 2 -4 -28z"/>
<path d="M11348 3220 c17 -8 22 -18 24 -52 l1 -43 4 38 c5 41 -10 67 -36 66
-11 0 -9 -3 7 -9z"/>
<path d="M11419 3213 c-12 -16 -12 -17 1 -7 8 7 24 14 35 17 19 4 19 5 -1 6
-12 0 -28 -7 -35 -16z"/>
<path d="M11520 3180 c0 -29 2 -51 4 -49 8 8 10 88 3 95 -4 4 -7 -17 -7 -46z"/>
<path d="M11563 3223 c13 -3 17 -16 18 -51 l2 -47 6 40 c7 44 -2 66 -28 64
-13 -1 -13 -2 2 -6z"/>
<path d="M11610 3226 c0 -2 9 -6 20 -9 11 -3 18 -1 14 4 -5 9 -34 13 -34 5z"/>
<path d="M11758 3223 c6 -2 18 -2 25 0 6 3 1 5 -13 5 -14 0 -19 -2 -12 -5z"/>
<path d="M11879 3213 c-12 -16 -12 -17 1 -7 8 7 24 14 35 17 19 4 19 5 -1 6
-12 0 -28 -7 -35 -16z"/>
<path d="M11980 3155 c0 -43 3 -76 6 -72 7 7 7 138 -1 145 -3 3 -5 -30 -5 -73z"/>
<path d="M12010 3226 c0 -2 11 -6 25 -8 13 -3 22 -1 19 3 -5 9 -44 13 -44 5z"/>
<path d="M12102 3218 c-7 -7 -12 -24 -12 -38 0 -32 17 -50 45 -49 17 1 16 2
-5 8 -14 4 -26 15 -28 24 -3 13 4 17 32 17 23 0 36 5 36 13 0 18 -21 37 -40
37 -9 0 -21 -5 -28 -12z m56 -15 c2 -9 -7 -13 -27 -13 -30 0 -39 9 -24 24 11
10 46 3 51 -11z"/>
<path d="M12298 3220 c26 -11 29 -27 5 -33 -16 -4 -16 -5 1 -6 13 -1 17 -6 13
-21 -3 -11 -1 -23 4 -26 10 -6 12 56 3 80 -3 9 -16 16 -28 15 -21 0 -21 0 2
-9z"/>
<path d="M12363 3223 c9 -2 23 -2 30 0 6 3 -1 5 -18 5 -16 0 -22 -2 -12 -5z"/>
<path d="M12429 3213 c-12 -16 -12 -17 1 -7 8 7 24 14 35 17 19 4 19 5 -1 6
-12 0 -28 -7 -35 -16z"/>
<path d="M12533 3180 c0 -30 2 -43 4 -27 2 15 2 39 0 55 -2 15 -4 2 -4 -28z"/>
<path d="M12606 3221 c-3 -4 6 -6 19 -3 14 2 25 6 25 8 0 8 -39 4 -44 -5z"/>
<path d="M12733 3223 c9 -2 23 -2 30 0 6 3 -1 5 -18 5 -16 0 -22 -2 -12 -5z"/>
<path d="M12838 3220 c17 -8 22 -18 24 -52 l1 -43 4 38 c5 41 -10 67 -36 66
-11 0 -9 -3 7 -9z"/>
<path d="M12938 3220 c26 -11 29 -27 5 -33 -16 -4 -16 -5 1 -6 13 -1 17 -6 13
-21 -3 -11 -1 -23 4 -26 14 -8 11 70 -3 84 -7 7 -19 12 -27 11 -10 0 -7 -4 7
-9z"/>
<path d="M13232 3218 c-7 -7 -12 -24 -12 -38 0 -32 17 -50 45 -49 17 1 16 2
-5 8 -14 4 -26 15 -28 24 -3 13 4 17 32 17 23 0 36 5 36 13 0 18 -21 37 -40
37 -9 0 -21 -5 -28 -12z m56 -15 c2 -9 -7 -13 -27 -13 -30 0 -39 9 -24 24 11
10 46 3 51 -11z"/>
<path d="M13336 3222 c-3 -5 6 -7 19 -4 29 5 36 -24 8 -31 -17 -4 -16 -5 0 -6
27 -2 17 -35 -12 -39 -20 -3 -23 0 -18 19 4 16 3 19 -5 11 -19 -19 -1 -43 32
-40 30 2 31 4 28 48 -3 37 -7 46 -25 48 -11 2 -24 -1 -27 -6z"/>
<path d="M13566 3214 c-4 -9 -4 -19 -1 -22 2 -3 7 3 11 12 4 9 4 19 1 22 -2 3
-7 -3 -11 -12z"/>
<path d="M13773 3224 c-7 -3 -13 -11 -13 -17 0 -8 4 -7 12 1 18 18 46 15 52
-5 4 -14 4 -14 3 2 -2 20 -29 29 -54 19z"/>
<path d="M13979 3213 c-12 -16 -12 -17 1 -7 8 7 24 14 35 17 19 4 19 5 -1 6
-12 0 -28 -7 -35 -16z"/>
<path d="M14188 3220 c35 -15 27 -33 -13 -28 -30 3 -35 1 -34 -17 0 -11 3 -14
6 -7 2 6 20 12 39 12 21 0 34 5 34 13 0 18 -21 37 -39 36 -10 0 -7 -4 7 -9z"/>
<path d="M14299 3213 c-13 -15 -12 -15 7 -3 12 7 29 10 38 7 15 -6 17 -17 13
-68 -3 -36 -1 -56 4 -48 5 8 9 39 9 69 0 54 -1 56 -29 58 -17 1 -34 -5 -42
-15z"/>
<path d="M14400 3180 c0 -29 2 -51 4 -49 8 8 10 88 3 95 -4 4 -7 -17 -7 -46z"/>
<path d="M14430 3226 c0 -2 9 -6 20 -9 11 -3 18 -1 14 4 -5 9 -34 13 -34 5z"/>
<path d="M14569 3213 c-12 -16 -12 -17 1 -7 8 7 24 14 35 17 19 4 19 5 -1 6
-12 0 -28 -7 -35 -16z"/>
<path d="M14652 3195 c-2 -43 11 -65 38 -64 10 0 9 3 -5 8 -14 6 -22 21 -26
52 l-6 44 -1 -40z"/>
<path d="M14718 3188 c-3 -24 -1 -47 3 -52 5 -6 9 13 9 42 0 63 -6 68 -12 10z"/>
<path d="M14771 3221 c-7 -5 -12 -13 -10 -18 2 -5 12 -1 22 9 18 19 12 24 -12
9z"/>
<path d="M14928 3220 c35 -15 27 -33 -13 -28 -30 3 -35 1 -34 -17 0 -11 3 -14
6 -7 2 6 20 12 39 12 21 0 34 5 34 13 0 18 -21 37 -39 36 -10 0 -7 -4 7 -9z"/>
<path d="M15003 3224 c-7 -3 -13 -13 -13 -22 1 -15 2 -15 11 1 11 19 44 23 52
7 3 -6 4 -5 3 2 -3 14 -33 20 -53 12z"/>
<path d="M15128 3223 c6 -2 18 -2 25 0 6 3 1 5 -13 5 -14 0 -19 -2 -12 -5z"/>
<path d="M15183 3180 c0 -30 2 -43 4 -27 2 15 2 39 0 55 -2 15 -4 2 -4 -28z"/>
<path d="M15232 3218 c-7 -7 -12 -24 -12 -38 0 -32 17 -50 45 -49 17 1 16 2
-5 8 -14 4 -26 15 -28 24 -3 13 4 17 32 17 23 0 36 5 36 13 0 18 -21 37 -40
37 -9 0 -21 -5 -28 -12z m56 -15 c2 -9 -7 -13 -27 -13 -30 0 -39 9 -24 24 11
10 46 3 51 -11z"/>
<path d="M15323 3214 c-6 -17 20 -45 41 -43 6 0 1 5 -11 11 -13 6 -23 17 -23
24 0 7 10 15 23 17 l22 4 -23 2 c-13 0 -25 -6 -29 -15z"/>
<path d="M10760 3202 c0 -7 11 -17 25 -24 13 -6 26 -18 28 -27 4 -14 5 -14 6
1 0 10 -9 23 -21 29 -13 7 -26 17 -30 23 -5 8 -8 7 -8 -2z"/>
<path d="M11722 3180 c0 -14 2 -19 5 -12 2 6 2 18 0 25 -3 6 -5 1 -5 -13z"/>
<path d="M12061 3188 c0 -9 -4 -25 -7 -35 -5 -17 -5 -17 6 0 6 10 9 25 7 35
-4 15 -5 15 -6 0z"/>
<path d="M14052 3180 c0 -14 2 -19 5 -12 2 6 2 18 0 25 -3 6 -5 1 -5 -13z"/>
<path d="M14473 3165 c0 -22 2 -30 4 -17 2 12 2 30 0 40 -3 9 -5 -1 -4 -23z"/>
<path d="M15091 3180 c-1 -31 16 -50 44 -49 17 1 16 2 -5 8 -17 5 -27 16 -31
36 -6 28 -7 28 -8 5z"/>
<path d="M9818 3183 c6 -2 18 -2 25 0 6 3 1 5 -13 5 -14 0 -19 -2 -12 -5z"/>
<path d="M10990 3182 c0 -4 18 -6 40 -4 22 2 40 6 40 8 0 2 -18 4 -40 4 -22 0
-40 -3 -40 -8z"/>
<path d="M14281 3180 c0 -8 4 -22 9 -30 12 -18 12 -2 0 25 -6 13 -9 15 -9 5z"/>
<path d="M9785 3169 c-4 -6 -5 -12 -2 -15 2 -3 7 2 10 11 7 17 1 20 -8 4z"/>
<path d="M10197 3162 c4 -16 -1 -21 -19 -25 l-23 -4 23 -2 c25 -1 40 25 24 41
-8 8 -9 5 -5 -10z"/>
<path d="M12637 3162 c4 -16 -1 -21 -19 -25 l-23 -4 23 -2 c25 -1 40 25 24 41
-8 8 -9 5 -5 -10z"/>
<path d="M10670 3161 c0 -7 -4 -9 -10 -6 -5 3 -10 2 -10 -4 0 -5 4 -12 9 -15
10 -6 25 24 16 32 -3 3 -5 0 -5 -7z"/>
<path d="M13530 3158 c0 -9 5 -20 10 -23 13 -8 13 5 0 25 -8 13 -10 13 -10 -2z"/>
<path d="M9834 3151 c-5 -5 -18 -11 -29 -14 l-20 -5 20 -1 c22 -1 52 15 44 23
-3 3 -10 2 -15 -3z"/>
<path d="M10002 3144 c9 -9 21 -15 27 -13 6 2 -2 10 -17 17 -25 11 -25 11 -10
-4z"/>
<path d="M10350 3151 c0 -15 49 -26 62 -13 8 8 5 9 -11 5 -11 -3 -28 0 -36 7
-10 8 -15 9 -15 1z"/>
<path d="M11009 3148 c7 -10 23 -17 35 -17 20 1 20 2 1 6 -11 3 -27 10 -35 17
-13 10 -13 9 -1 -6z"/>
<path d="M11109 3148 c7 -10 23 -17 35 -17 20 1 20 2 1 6 -11 3 -27 10 -35 17
-13 10 -13 9 -1 -6z"/>
<path d="M11199 3147 c7 -10 21 -17 31 -17 10 0 24 7 31 17 13 15 12 15 -8 2
-20 -12 -26 -12 -45 0 -21 13 -22 13 -9 -2z"/>
<path d="M11419 3147 c7 -10 21 -17 31 -17 10 0 24 7 31 17 13 15 12 15 -8 2
-20 -12 -26 -12 -45 0 -21 13 -22 13 -9 -2z"/>
<path d="M11879 3147 c7 -10 21 -17 31 -17 10 0 24 7 31 17 13 15 12 15 -8 2
-20 -12 -26 -12 -45 0 -21 13 -22 13 -9 -2z"/>
<path d="M12429 3147 c7 -10 21 -17 31 -17 10 0 24 7 31 17 13 15 12 15 -8 2
-20 -12 -26 -12 -45 0 -21 13 -22 13 -9 -2z"/>
<path d="M13122 3144 c9 -9 21 -15 27 -13 6 2 -2 10 -17 17 -25 11 -25 11 -10
-4z"/>
<path d="M13590 3150 c0 -5 5 -10 11 -10 5 0 7 5 4 10 -3 6 -8 10 -11 10 -2 0
-4 -4 -4 -10z"/>
<path d="M13979 3148 c7 -10 23 -17 35 -17 20 1 20 2 1 6 -11 3 -27 10 -35 17
-13 10 -13 9 -1 -6z"/>
<path d="M14569 3148 c7 -10 23 -17 35 -17 20 1 20 2 1 6 -11 3 -27 10 -35 17
-13 10 -13 9 -1 -6z"/>
<path d="M10467 3138 c2 -5 15 -8 28 -8 13 0 26 3 28 8 3 4 -10 7 -28 7 -18 0
-31 -3 -28 -7z"/>
<path d="M11739 3137 c5 -5 19 -7 32 -5 20 3 19 5 -9 9 -20 3 -29 2 -23 -4z"/>
<path d="M12268 3138 c5 -5 16 -8 23 -6 8 3 3 7 -10 11 -17 4 -21 3 -13 -5z"/>
<path d="M12740 3140 c0 -6 7 -10 15 -10 8 0 15 2 15 4 0 2 -7 6 -15 10 -8 3
-15 1 -15 -4z"/>
<path d="M12908 3138 c5 -5 16 -8 23 -6 8 3 3 7 -10 11 -17 4 -21 3 -13 -5z"/>
<path d="M14157 3138 c2 -5 15 -8 28 -8 13 0 26 3 28 8 3 4 -10 7 -28 7 -18 0
-31 -3 -28 -7z"/>
<path d="M14897 3138 c2 -5 15 -8 28 -8 13 0 26 3 28 8 3 4 -10 7 -28 7 -18 0
-31 -3 -28 -7z"/>
<path d="M10778 3133 c7 -3 16 -2 19 1 4 3 -2 6 -13 5 -11 0 -14 -3 -6 -6z"/>
<path d="M12018 3133 c7 -3 16 -2 19 1 4 3 -2 6 -13 5 -11 0 -14 -3 -6 -6z"/>
<path d="M12378 3133 c7 -3 16 -2 19 1 4 3 -2 6 -13 5 -11 0 -14 -3 -6 -6z"/>
<path d="M14318 3133 c7 -3 16 -2 19 1 4 3 -2 6 -13 5 -11 0 -14 -3 -6 -6z"/>
<path d="M15328 3133 c6 -2 18 -2 25 0 6 3 1 5 -13 5 -14 0 -19 -2 -12 -5z"/>
<path d="M14308 3083 c6 -2 18 -2 25 0 6 3 1 5 -13 5 -14 0 -19 -2 -12 -5z"/>
<path d="M11311 2708 c1 -29 4 -43 6 -30 2 12 10 22 17 22 8 0 19 7 26 15 16
19 -3 45 -31 45 -16 0 -19 -7 -18 -52z m44 22 c0 -8 -8 -16 -17 -18 -13 -2
-18 3 -18 18 0 15 5 20 18 18 9 -2 17 -10 17 -18z"/>
<path d="M11810 2741 c0 -14 -5 -18 -18 -14 -10 2 -25 -3 -32 -12 -19 -23 -1
-50 34 -51 25 -1 26 1 26 47 0 27 -2 49 -5 49 -3 0 -5 -9 -5 -19z m-6 -30 c9
-14 -4 -41 -19 -41 -18 0 -28 17 -21 35 6 17 32 20 40 6z"/>
<path d="M11880 2711 c0 -43 3 -51 19 -51 24 0 45 25 35 42 -5 7 -8 22 -9 33
0 13 -8 21 -22 23 -21 3 -23 0 -23 -47z m40 24 c0 -8 -7 -15 -15 -15 -8 0 -15
7 -15 15 0 8 7 15 15 15 8 0 15 -7 15 -15z m5 -45 c0 -8 -8 -16 -17 -18 -13
-2 -18 3 -18 18 0 15 5 20 18 18 9 -2 17 -10 17 -18z"/>
<path d="M12103 2710 c0 -30 2 -43 4 -27 3 21 10 27 28 27 18 0 25 -6 28 -27
2 -16 4 -3 4 27 0 30 -2 45 -4 33 -3 -16 -11 -23 -28 -23 -17 0 -25 7 -28 23
-2 12 -4 -3 -4 -33z"/>
<path d="M12233 2710 c0 -30 2 -43 4 -27 2 15 2 39 0 55 -2 15 -4 2 -4 -28z"/>
<path d="M12263 2710 c0 -30 2 -43 4 -27 2 15 2 39 0 55 -2 15 -4 2 -4 -28z"/>
<path d="M12301 2708 c2 -52 2 -53 8 -13 6 36 7 38 15 17 4 -13 10 -21 13 -19
5 6 -25 67 -32 67 -3 0 -4 -24 -4 -52z"/>
<path d="M12362 2713 c-12 -26 -19 -49 -17 -52 3 -2 12 13 22 35 l17 39 7 -40
c6 -40 6 -40 8 13 0 28 -3 52 -7 52 -5 0 -18 -21 -30 -47z"/>
<path d="M12542 2710 c0 -32 2 -47 7 -37 6 17 8 17 20 3 7 -9 18 -16 24 -16 6
0 1 7 -11 16 -23 16 -23 17 -5 38 18 21 18 21 -4 3 -21 -19 -22 -19 -26 15 -2
21 -4 13 -5 -22z"/>
<path d="M12650 2710 c0 -48 1 -50 28 -49 23 2 24 2 5 6 -14 3 -23 12 -23 23
0 11 9 20 23 23 l22 4 -22 2 c-13 0 -23 7 -23 15 0 8 10 17 23 19 19 4 18 4
-5 6 -27 1 -28 -1 -28 -49z"/>
<path d="M12773 2710 c0 -30 2 -43 4 -27 2 15 2 39 0 55 -2 15 -4 2 -4 -28z"/>
<path d="M13191 2708 c1 -29 4 -43 6 -31 3 13 13 23 26 25 16 2 22 10 22 28 0
20 -6 26 -27 28 -28 3 -28 3 -27 -50z m44 22 c0 -8 -8 -16 -17 -18 -13 -2 -18
3 -18 18 0 15 5 20 18 18 9 -2 17 -10 17 -18z"/>
<path d="M13272 2713 c-2 -52 -1 -53 26 -52 22 1 23 2 5 6 -18 4 -23 12 -26
51 l-3 47 -2 -52z"/>
<path d="M13337 2742 c-10 -10 -17 -26 -17 -35 0 -23 28 -47 53 -46 21 1 21 1
-2 8 -33 9 -49 36 -35 58 6 10 22 21 35 24 21 6 22 7 3 8 -11 1 -28 -7 -37
-17z"/>
<path d="M13469 2743 c-12 -16 -12 -17 1 -7 8 7 24 14 35 17 19 4 19 5 -1 6
-12 0 -28 -7 -35 -16z"/>
<path d="M13638 2750 c28 -12 28 -21 -3 -50 -33 -31 -32 -40 8 -39 l32 1 -28
7 -29 6 27 23 c32 28 29 56 -5 59 -25 3 -25 3 -2 -7z"/>
<path d="M13697 2753 c-14 -13 -7 -84 8 -89 22 -9 45 14 45 45 0 39 -32 65
-53 44z m38 -44 c0 -24 -5 -34 -15 -34 -16 0 -25 37 -16 62 10 26 31 8 31 -28z"/>
<path d="M13788 2750 c28 -12 28 -21 -3 -50 -33 -31 -32 -40 8 -39 l32 1 -28
7 -29 6 27 23 c32 28 29 56 -5 59 -25 3 -25 3 -2 -7z"/>
<path d="M13852 2720 l-23 -40 26 0 c14 0 25 -6 25 -12 0 -10 2 -10 8 -1 9 14
3 93 -7 93 -3 0 -16 -18 -29 -40z m28 -10 c0 -11 -7 -20 -15 -20 -18 0 -19 12
-3 28 16 16 18 15 18 -8z"/>
<path d="M12718 2737 c-7 -21 6 -70 20 -73 7 -1 8 0 2 3 -12 6 -13 50 -1 55 5
2 3 8 -4 15 -10 9 -14 9 -17 0z"/>
<path d="M13480 2725 c-15 -18 3 -45 29 -44 11 0 9 3 -6 9 -13 5 -23 14 -23
20 0 6 10 15 23 20 15 6 17 9 6 9 -9 1 -22 -6 -29 -14z"/>
<path d="M11384 2716 c-11 -29 0 -51 26 -51 21 0 25 5 25 30 0 24 -5 31 -23
33 -13 2 -24 -3 -28 -12z m46 -21 c0 -18 -5 -25 -20 -25 -15 0 -20 7 -20 25 0
18 5 25 20 25 15 0 20 -7 20 -25z"/>
<path d="M11462 2695 c6 -19 15 -32 19 -30 7 5 -17 65 -26 65 -2 0 2 -16 7
-35z"/>
<path d="M11496 2721 c-4 -6 0 -18 8 -27 9 -8 16 -21 16 -27 0 -7 5 -4 11 6 6
10 8 23 5 30 -2 7 -5 3 -6 -8 -1 -16 -4 -15 -14 9 -8 18 -16 24 -20 17z"/>
<path d="M11564 2716 c-11 -28 1 -51 26 -53 22 -1 22 -1 3 4 -31 6 -29 23 3
23 20 0 25 4 20 16 -3 9 -6 18 -6 20 0 11 -41 2 -46 -10z m41 -6 c3 -5 -3 -10
-14 -10 -12 0 -21 5 -21 10 0 6 6 10 14 10 8 0 18 -4 21 -10z"/>
<path d="M11641 2693 c2 -35 2 -35 6 -8 3 16 10 33 16 37 8 5 6 8 -5 8 -14 0
-18 -8 -17 -37z"/>
<path d="M11691 2716 c-20 -24 -4 -56 27 -55 21 1 22 2 7 6 -34 8 -41 23 -11
23 21 0 27 4 24 17 -4 23 -31 28 -47 9z m39 -6 c0 -5 -9 -10 -21 -10 -11 0
-17 5 -14 10 3 6 13 10 21 10 8 0 14 -4 14 -10z"/>
<path d="M11965 2693 c15 -35 15 -39 -2 -51 -12 -10 -13 -13 -3 -10 16 5 49
64 49 88 0 8 -6 2 -13 -15 l-14 -30 -11 28 c-6 15 -13 27 -16 27 -3 0 2 -17
10 -37z"/>
<path d="M12020 2720 c0 -5 5 -10 10 -10 6 0 10 5 10 10 0 6 -4 10 -10 10 -5
0 -10 -4 -10 -10z"/>
<path d="M12203 2695 c0 -22 2 -30 4 -17 2 12 2 30 0 40 -3 9 -5 -1 -4 -23z"/>
<path d="M12443 2724 c23 -7 22 -20 -3 -27 -30 -8 -25 -37 6 -37 23 0 25 3 22
32 -2 24 -8 33 -23 35 -16 1 -16 1 -2 -3z m17 -44 c0 -5 -7 -10 -15 -10 -8 0
-15 5 -15 10 0 6 7 10 15 10 8 0 15 -4 15 -10z"/>
<path d="M12491 2690 c1 -27 3 -29 6 -10 2 14 11 30 20 37 13 10 13 12 -6 10
-17 -1 -21 -7 -20 -37z"/>
<path d="M12797 2722 c6 -4 13 -21 16 -37 4 -27 4 -27 6 8 1 29 -3 37 -16 37
-12 0 -14 -3 -6 -8z"/>
<path d="M12853 2695 c0 -22 2 -30 4 -17 2 12 2 30 0 40 -3 9 -5 -1 -4 -23z"/>
<path d="M12884 2716 c-11 -29 0 -51 26 -51 21 0 25 5 25 30 0 24 -5 31 -23
33 -13 2 -24 -3 -28 -12z m46 -21 c0 -25 -23 -35 -35 -15 -10 16 2 40 20 40 9
0 15 -9 15 -25z"/>
<path d="M12961 2676 c1 -31 4 -43 7 -31 4 11 16 20 26 20 11 0 21 7 23 15 4
12 3 13 -5 1 -12 -17 -42 -7 -42 14 0 21 30 31 42 14 8 -12 9 -11 5 1 -2 8
-16 15 -30 16 -26 1 -27 -1 -26 -50z"/>
<path d="M13053 2695 c0 -22 2 -30 4 -17 2 12 2 30 0 40 -3 9 -5 -1 -4 -23z"/>
<path d="M13103 2724 c23 -7 22 -20 -3 -27 -30 -8 -25 -37 6 -37 23 0 25 3 22
32 -2 24 -8 33 -23 35 -16 1 -16 1 -2 -3z m17 -44 c0 -5 -7 -10 -15 -10 -8 0
-15 5 -15 10 0 6 7 10 15 10 8 0 15 -4 15 -10z"/>
<path d="M13469 2678 c7 -10 23 -17 35 -17 20 1 20 2 1 6 -11 3 -27 10 -35 17
-13 10 -13 9 -1 -6z"/>
<path d="M12020 2670 c0 -5 5 -10 10 -10 6 0 10 5 10 10 0 6 -4 10 -10 10 -5
0 -10 -4 -10 -10z"/>
</g>
</svg>
